<?xml version="1.0" standalone="no"?>
<!DOCTYPE svg PUBLIC "-//W3C//DTD SVG 20010904//EN"
 "http://www.w3.org/TR/2001/REC-SVG-20010904/DTD/svg10.dtd">
<svg version="1.0" xmlns="http://www.w3.org/2000/svg"
 width="500.000000pt" height="500.000000pt" viewBox="0 0 500.000000 500.000000"
 preserveAspectRatio="xMidYMid meet">
<metadata>
Created by potrace 1.14, written by Peter Selinger 2001-2017
</metadata>
<g transform="translate(0.000000,500.000000) scale(0.100000,-0.100000)"
fill="#000000" stroke="none">
<path d="M0 2500 l0 -2500 2500 0 2500 0 0 2500 0 2500 -2500 0 -2500 0 0
-2500z m2210 870 c35 -20 51 -38 75 -85 29 -57 30 -67 33 -207 l4 -148 -101 0
-101 0 -1 125 c-2 134 -1 129 -12 161 -10 28 -56 47 -91 38 -60 -15 -61 -19
-64 -464 -2 -223 0 -425 3 -449 13 -87 88 -119 146 -62 29 29 29 31 29 144 l0
114 -50 7 -51 7 3 72 3 72 149 3 148 3 -4 -203 c-6 -225 -15 -268 -70 -325
-48 -50 -110 -66 -237 -61 -140 4 -189 27 -235 108 l-31 55 0 465 c0 420 2
470 18 516 24 70 75 115 152 135 17 5 77 7 135 6 91 -2 111 -6 150 -27z m1547
2 c50 -26 88 -79 102 -142 6 -25 11 -102 11 -172 l0 -128 -101 0 -102 0 7 70
c10 95 -2 200 -24 230 -25 33 -90 34 -122 2 -22 -21 -23 -30 -23 -172 0 -191
2 -194 138 -231 162 -43 204 -88 228 -239 14 -90 5 -265 -16 -337 -18 -60 -74
-116 -132 -132 -55 -16 -211 -13 -269 4 -54 16 -106 62 -124 110 -18 47 -30
192 -23 278 l6 77 93 0 93 0 3 -146 c3 -146 3 -146 31 -170 36 -31 81 -31 112
0 30 31 42 129 28 249 -12 106 -27 125 -118 151 -114 33 -150 49 -187 85 -54
54 -63 98 -63 301 1 170 1 176 27 226 47 89 111 115 278 111 86 -3 113 -7 147
-25z m-2852 -62 l0 -75 -142 -3 -143 -3 0 -194 0 -195 135 0 135 0 0 -74 c0
-89 5 -86 -158 -86 l-112 0 2 -202 3 -203 115 -1 c192 -2 170 8 170 -79 l0
-75 -245 0 -245 0 0 635 0 635 243 -2 242 -3 0 -75z m385 75 c0 -3 18 -94 40
-203 32 -154 140 -847 140 -895 0 -6 2 -8 5 -6 2 3 0 93 -6 200 -5 106 -11
228 -13 269 -2 41 -7 202 -11 358 l-8 282 97 0 96 0 0 -635 0 -635 -152 0
-153 0 -43 223 c-24 122 -61 366 -82 542 -22 176 -42 327 -44 335 -8 31 -6
-74 8 -425 8 -198 17 -431 20 -517 l6 -158 -100 0 -100 0 0 635 0 635 150 0
c83 0 150 -2 150 -5z m1330 -555 l0 -560 140 0 140 0 0 -75 0 -75 -245 0 -245
0 0 635 0 635 105 0 105 0 0 -560z m560 -75 l0 -635 -100 0 -100 0 0 635 0
635 100 0 100 0 0 -635z m1010 360 l0 -275 80 0 80 0 0 275 0 275 100 0 100 0
0 -635 0 -635 -100 0 -100 0 0 280 0 280 -80 0 -80 0 0 -280 0 -280 -100 0
-100 0 0 635 0 635 100 0 100 0 0 -275z m-2692 -1299 c4 -19 -9 -80 -105 -516
-116 -526 -197 -717 -373 -884 -129 -122 -280 -175 -460 -163 -143 10 -220 49
-260 133 -33 67 -29 223 5 210 8 -3 15 0 18 7 2 7 9 2 16 -11 44 -83 135 -144
242 -162 254 -44 480 142 574 473 25 89 66 280 61 285 -2 1 -20 -5 -42 -14
-26 -11 -58 -15 -100 -12 -78 5 -160 55 -191 116 l-19 40 23 118 c49 252 43
235 91 286 62 66 167 118 239 118 30 0 67 -7 82 -15 32 -16 41 -12 41 21 0 13
7 24 18 26 28 6 137 -38 140 -56z m1272 54 c17 -9 18 -18 13 -75 -10 -106 23
-153 126 -177 41 -9 63 -9 104 1 77 19 91 32 112 100 24 79 50 103 117 108 86
6 86 5 34 -157 -26 -79 -56 -191 -68 -249 -19 -95 -20 -109 -7 -136 10 -22 22
-31 45 -33 59 -6 119 95 149 253 8 39 16 77 19 85 3 8 10 41 16 73 l11 57 49
0 c58 0 98 -14 107 -36 3 -9 -9 -78 -26 -153 -18 -75 -34 -160 -34 -190 -2
-46 1 -56 25 -76 48 -41 88 -13 133 93 14 35 31 99 37 143 13 85 5 140 -33
228 -22 50 -16 65 38 88 60 24 78 18 127 -46 50 -65 110 -101 167 -101 57 0
135 28 186 67 78 60 148 87 223 86 126 -1 209 -74 152 -131 -26 -26 -56 -21
-90 16 -38 40 -82 43 -117 7 -47 -46 -26 -93 83 -185 36 -30 74 -68 84 -85 28
-46 24 -113 -10 -163 -74 -111 -227 -159 -370 -117 -106 32 -157 126 -96 174
44 34 69 28 94 -25 50 -101 170 -113 214 -20 31 66 17 95 -93 195 -45 40 -84
84 -87 97 -7 28 -5 28 -68 9 -61 -19 -139 -19 -198 -1 l-45 13 5 -46 c15 -163
-95 -346 -233 -387 -90 -25 -190 2 -230 62 l-16 25 -27 -27 c-15 -15 -51 -38
-81 -52 -113 -52 -240 -9 -275 93 -13 40 -13 53 0 118 8 39 21 93 28 118 l14
46 -52 -14 c-33 -10 -79 -13 -132 -9 l-81 5 -23 -124 c-22 -124 -23 -125 -67
-166 -24 -22 -67 -51 -96 -65 -129 -59 -303 -8 -362 106 -16 30 -15 44 14 163
30 125 32 119 -42 111 -116 -12 -214 35 -233 112 -16 65 -123 -13 -173 -127
-11 -25 -33 -115 -47 -200 -15 -85 -32 -160 -37 -166 -6 -8 -34 -13 -73 -13
-53 0 -65 3 -74 20 -6 11 -9 24 -6 28 3 6 81 406 101 522 12 68 27 80 103 80
87 0 97 -7 84 -54 l-11 -37 31 26 c17 14 43 32 58 40 38 20 120 29 151 16 23
-8 28 -18 34 -62 10 -71 46 -109 105 -109 38 0 47 5 88 50 72 79 171 130 255
130 15 0 31 10 41 24 21 33 97 47 136 26z"/>
<path d="M1174 1731 c-33 -20 -67 -63 -78 -96 -18 -59 -56 -298 -50 -320 8
-32 49 -65 81 -65 14 0 41 16 64 38 50 46 68 100 100 286 l24 138 -24 19 c-30
24 -77 24 -117 0z"/>
<path d="M2551 1717 c-13 -6 -32 -23 -43 -37 -21 -29 -90 -332 -81 -358 3 -9
17 -29 31 -44 31 -34 72 -36 113 -7 30 21 34 33 64 179 9 47 20 103 25 124 7
33 5 46 -16 81 -13 23 -24 49 -24 58 0 20 -34 22 -69 4z"/>
</g>
</svg>
